<svg xmlns="http://www.w3.org/2000/svg" width="31" height="31" viewBox="0 0 31 31"><g transform="translate(-9819 -3406.868)"><circle cx="15.5" cy="15.5" r="15.5" transform="translate(9819 3406.868)" fill="#fff"></circle><path d="M323.727,157.874h-9.509a42.678,42.678,0,0,1,.008,10.231h9.522a15.448,15.448,0,0,0-.02-10.231Z" transform="translate(9525.259 3259.414)" fill="#f3f4f5"></path><g transform="translate(9835.819 3407.063)"><path d="M261.762,11.2h9.509l0-.013A15.444,15.444,0,0,0,258.105.972C260.468,2.267,261.158,6.37,261.762,11.2Z" transform="translate(-258.105 -0.972)" fill="#75abdc"></path><path d="M258.113,325.153a15.444,15.444,0,0,0,13.172-10.241c.005-.015.009-.03.015-.044h-9.522C261.178,319.721,260.485,323.853,258.113,325.153Z" transform="translate(-258.112 -294.412)" fill="#75abdc"></path></g><path d="M0,163.019A15.4,15.4,0,0,0,.861,168.1H21.279a42.676,42.676,0,0,0-.008-10.231H.882A15.4,15.4,0,0,0,0,163.019Z" transform="translate(9819 3259.415)" fill="#f3f4f5"></path><g transform="translate(9819.862 3407)"><path d="M13.538,10.275l0,.013H33.922c-.6-4.827-2.089-8.93-4.451-10.225C29.014.023,28.552,0,28.085,0A15.437,15.437,0,0,0,13.538,10.275Z" transform="translate(-13.513)" fill="#75abdc"></path><path d="M33.637,314.868H13.219l.015.044a15.438,15.438,0,0,0,14.557,10.305c.467,0,.929-.023,1.386-.064C31.55,323.853,33.037,319.721,33.637,314.868Z" transform="translate(-13.219 -294.349)" fill="#75abdc"></path></g></g></svg>