<svg xmlns="http://www.w3.org/2000/svg" width="52" height="52" viewBox="0 0 52 52"><g transform="translate(-1338 -3772)"><g transform="translate(1338 3772)"><circle cx="26" cy="26" r="26" fill="#315372"/><g transform="translate(4.677 11.433)"><g transform="translate(0 2.601)"><path d="M38.43,47.573a11.057,11.057,0,0,0,1.95,0,3.5,3.5,0,0,0,1.088-.63l3.5-2.273a.285.285,0,0,0-.067-.514L41.01,42.6a13.613,13.613,0,0,0-1.889-.754c-.381-.087-.678.2-1.007.394a22.1,22.1,0,0,0-2.145,1.268.718.718,0,0,0-.289.4c-.307.844-.536,1.725-.8,2.582L29.1,65.07a5.838,5.838,0,0,1-.18.577c.1-.236-.077.061-.165.166l-.882,1.047-.787.935a1.789,1.789,0,0,0-.2.238c.006-.012.25.015.033-.034a4.1,4.1,0,0,0-.98.054l-1.474.081a12.077,12.077,0,0,1-1.363,0l-1.343-.074A4.047,4.047,0,0,0,20.681,68c-.186.051.044.006.074.051-.061-.089-.144-.171-.213-.253l-.835-.991-.8-.953c-.073-.087-.153-.17-.22-.261-.1-.135.035.089.02.053-.258-.621-.408-1.312-.607-1.953l-1.369-4.4L13.406,48.6,12.235,44.83c-.15-.483-.2-1.062-.63-1.351-.667-.449-1.4-.825-2.088-1.234-.359-.212-.641-.5-1.05-.377-1.523.439-3.016,1.2-4.488,1.791l-1.247.5a.286.286,0,0,0-.067.514l3.7,2.4a2.128,2.128,0,0,0,1.028.5c.715.042,1.442,0,2.158,0a.281.281,0,0,0,0-.562c-.688,0-1.382-.027-2.069,0-.059,0-.329-.025-.187.018s-.032-.039-.066-.066c-.223-.177-.488-.317-.726-.472l-3.55-2.307L2.88,44.7,6.77,43.146,7.892,42.7a2.845,2.845,0,0,0,.766-.306c.022-.021.07-.026.1-.039-.232.106-.228-.1-.049.066a6.164,6.164,0,0,0,.994.588l1.147.678c.134.079.266.173.406.24.067.033.3.227.162.05s.056.292.085.386l.969,3.118c1.872,6.02,3.693,12.058,5.616,18.062a7.587,7.587,0,0,0,1.683,2.205c.291.346.489.743.941.815a24.312,24.312,0,0,0,2.454.135,12.164,12.164,0,0,0,1.363,0,22.123,22.123,0,0,0,2.422-.134c.458-.078.71-.572,1-.918a16.407,16.407,0,0,0,1.426-1.693,6.526,6.526,0,0,0,.511-1.508l1.237-3.978,3.333-10.718,1.3-4.175.383-1.231a1.579,1.579,0,0,0,.1-.325c.011-.185.154-.081-.084.043.628-.327,1.228-.726,1.837-1.086a5.768,5.768,0,0,0,.933-.551c.077-.07.251-.076.053-.079-.233,0,0,.038.038.069a8.321,8.321,0,0,0,1.845.737L43.5,44.2l1.247.5q-.034-.257-.067-.514l-3.34,2.17-.766.5c-.077.05-.153.106-.233.151-.146.083.057,0,.035.008a12.452,12.452,0,0,1-1.95,0,.281.281,0,0,0,0,.562Z" transform="translate(-2.529 -41.834)" fill="#a7b72d"/></g><path d="M47.406,76.048q-.586,5.741-1.173,11.482c-.029.288.421.286.45,0q.587-5.741,1.173-11.482c.029-.288-.42-.286-.45,0Z" transform="translate(-30.547 -61.03)" fill="#a7b72d"/><path d="M40.207,35.98,37.9,42.555a1.07,1.07,0,0,0-.13.626,3.564,3.564,0,0,0,.436.755l2.16,3.741L42,50.512a.225.225,0,0,0,.388-.227l-3.474-6.017a10.01,10.01,0,0,0-.669-1.159c-.121-.155-.028-.217-.07.008a1.278,1.278,0,0,1,.1-.275c.525-1.13.845-2.407,1.258-3.582l1.109-3.16c.1-.274-.338-.391-.434-.12Z" transform="translate(-25.112 -35.381)" fill="#a7b72d"/><path d="M74.619,61.5l-.5-5.3c-.191-2.019-.486-4.056-.577-6.082-.005-.113,0-.12-.039.006a.918.918,0,0,1,.117-.2c.216-.322.392-.679.586-1.015l1.933-3.347c.5-.86,1.037-1.707,1.494-2.588.217-.418-.009-.71-.177-1.145l-2.5-6.448c-.1-.267-.539-.151-.434.12l2.194,5.661.484,1.249c.038.1.08.2.114.3.013.037.095-.218-.008-.069-.489.711-.876,1.518-1.307,2.264L74.025,48.32a6.474,6.474,0,0,0-.946,1.7,6.669,6.669,0,0,0,.15,1.577q.173,1.823.346,3.645.3,3.13.594,6.26c.027.286.477.289.45,0Z" transform="translate(-47.746 -35.002)" fill="#a7b72d"/><path d="M24.3,55.206a.882.882,0,1,1-.881-.881A.881.881,0,0,1,24.3,55.206Z" transform="translate(-15.356 -47.241)" fill="#a7b72d"/><path d="M98.913,55.206a.882.882,0,1,1-.882-.881A.882.882,0,0,1,98.913,55.206Z" transform="translate(-63.19 -47.241)" fill="#a7b72d"/><path d="M54.7,35.691a24.61,24.61,0,0,0-3.185-1.034,15.5,15.5,0,0,0-2.556-.01H44.072a20.734,20.734,0,0,0-2.872,0,8.663,8.663,0,0,0-1.551.537l-1.887.677c-.338.121-.192.665.15.542a33.072,33.072,0,0,1,3.309-1.185c.043-.01-.063.005.091-.007s.315,0,.471,0h6.5c1.01,0,2.078-.1,3.084,0,.034,0,.134.015,0-.008a1.437,1.437,0,0,1,.216.07c.36.126.726.235,1.089.353l1.872.608c.345.112.492-.431.149-.542Z" transform="translate(-24.994 -34.588)" fill="#a7b72d"/><g transform="translate(13.471 3.195)"><path d="M47.656,89.565h6.589a.228.228,0,0,0,.225-.225V82.6a.225.225,0,0,0-.45,0V89.34l.225-.225H47.656a.225.225,0,0,0,0,.45Z" transform="translate(-44.792 -68.421)" fill="#a7b72d"/><path d="M65.651,78.609a.957.957,0,1,1-.957-.957A.956.956,0,0,1,65.651,78.609Z" transform="translate(-55.241 -65.391)" fill="#a7b72d"/><path d="M40.407,47.281l2.4-1.056c.172-.075.341-.161.516-.227.2-.076-.045-.011.043-.02a8.5,8.5,0,0,1,.85,0H49.55a.225.225,0,0,0,0-.449H44.061a2.8,2.8,0,0,0-1.374.262l-2.507,1.1c-.264.116-.036.5.227.388Z" transform="translate(-40.063 -44.796)" fill="#a7b72d"/><path d="M68.411,44.445a.957.957,0,1,1-.957-.956A.956.956,0,0,1,68.411,44.445Z" transform="translate(-57.011 -43.489)" fill="#a7b72d"/><path d="M63.873,64.9h-8.6a.228.228,0,0,0-.225.225v8.358a.225.225,0,0,0,.45,0V65.125l-.225.225h8.6a.225.225,0,0,0,0-.45Z" transform="translate(-49.667 -57.216)" fill="#a7b72d"/><path d="M54.917,89.769a.957.957,0,1,1-.957-.956A.957.957,0,0,1,54.917,89.769Z" transform="translate(-48.36 -72.546)" fill="#a7b72d"/><path d="M55.493,60.2V57.43a.225.225,0,0,0-.45,0V60.2a.225.225,0,0,0,.45,0Z" transform="translate(-49.667 -52.287)" fill="#a7b72d"/><path d="M54.917,53.261a.957.957,0,1,1-.957-.956A.957.957,0,0,1,54.917,53.261Z" transform="translate(-48.36 -49.141)" fill="#a7b72d"/></g></g></g></g></svg>