<svg xmlns="http://www.w3.org/2000/svg" width="176.109" height="176.568" viewBox="0 0 176.109 176.568"><g transform="translate(-640.406 -1570.549)"><g transform="translate(549.406 1554.549)"><path d="M64.858,0A64.858,64.858,0,1,1,0,64.858,64.858,64.858,0,0,1,64.858,0Z" transform="translate(114.635 39.635)" fill="#1e3346"></path><path d="M63.485,129.715a65.593,65.593,0,0,1-13.1-1.318,64.7,64.7,0,0,1-23.234-9.759A65.064,65.064,0,0,1,3.613,90.1,64.516,64.516,0,0,1,0,78.747l1.612-.362c6.314,28.649,32.308,49.443,61.808,49.443,34.887,0,63.27-28.229,63.27-62.927S98.307,1.973,63.42,1.973A62.942,62.942,0,0,0,25.99,14.2l-1.116-1.508c.751-.555,1.519-1.1,2.281-1.611A64.906,64.906,0,1,1,76.58,128.4,65.583,65.583,0,0,1,63.485,129.715Z" transform="translate(202.252 192.568) rotate(-150)" fill="#a7b72d"></path><path d="M3.3,1.649A1.649,1.649,0,1,0,1.649,3.3,1.65,1.65,0,0,0,3.3,1.649Z" transform="translate(185.533 168.77) rotate(-60)" fill="#a7b72d"></path><path d="M3.3,1.649A1.649,1.649,0,1,0,1.649,3.3,1.65,1.65,0,0,0,3.3,1.649Z" transform="translate(238.484 124.915) rotate(-60)" fill="#a7b72d"></path></g><g transform="translate(695 1624.887)"><path d="M11.892,52.291a5.514,5.514,0,0,0-2.664.68A31.182,31.182,0,0,1,40.016,3.259,1.321,1.321,0,0,0,40.539.67,34.061,34.061,0,0,0,33.809,0,33.809,33.809,0,0,0,7.275,54.762a5.549,5.549,0,1,0,4.617-2.47Zm2.054,7.6a2.905,2.905,0,1,1,.851-2.054A2.885,2.885,0,0,1,13.947,59.893Zm0,0" fill="#a7b72d"></path><path d="M231.744,40.673a5.535,5.535,0,1,0-1.952,1.792,31.182,31.182,0,0,1-30.728,49.724,1.321,1.321,0,1,0-.518,2.59,34.084,34.084,0,0,0,6.666.657,33.809,33.809,0,0,0,26.533-54.764Zm-6.67-1.02a2.906,2.906,0,1,1,2.054.851A2.886,2.886,0,0,1,225.074,39.652Zm0,0" transform="translate(-171.403 -27.818)" fill="#a7b72d"></path><path d="M92.573,120.752a1.321,1.321,0,0,0,1.321,1.321h8.258a1.321,1.321,0,0,0,1.321-1.321v-2.56a20.681,20.681,0,0,0,4.957-2.054l1.808,1.808a1.32,1.32,0,0,0,1.868,0l5.837-5.841a1.321,1.321,0,0,0,0-1.868l-1.806-1.806a20.681,20.681,0,0,0,2.054-4.957h2.551a1.321,1.321,0,0,0,1.321-1.321V93.9a1.321,1.321,0,0,0-1.321-1.321h-2.551a20.684,20.684,0,0,0-2.054-4.956l1.8-1.8a1.321,1.321,0,0,0,0-1.869l-5.841-5.837a1.321,1.321,0,0,0-1.868,0l-1.793,1.794a20.681,20.681,0,0,0-4.957-2.054V75.321A1.321,1.321,0,0,0,102.151,74H93.893a1.321,1.321,0,0,0-1.321,1.321v2.537a20.664,20.664,0,0,0-4.956,2.054l-1.794-1.794a1.321,1.321,0,0,0-1.868,0l-5.841,5.837a1.32,1.32,0,0,0,0,1.868l1.8,1.8a20.678,20.678,0,0,0-2.054,4.956H75.309a1.32,1.32,0,0,0-1.321,1.32l0,8.258a1.32,1.32,0,0,0,1.321,1.321h2.551a20.682,20.682,0,0,0,2.054,4.957L78.1,110.236a1.321,1.321,0,0,0,0,1.868l5.837,5.841a1.321,1.321,0,0,0,.934.387h0a1.321,1.321,0,0,0,.934-.387l1.807-1.808a20.7,20.7,0,0,0,4.957,2.054Zm-4.439-7.392a1.321,1.321,0,0,0-1.651.175l-1.608,1.608-3.97-3.973,1.606-1.607a1.32,1.32,0,0,0,.175-1.65,18.077,18.077,0,0,1-2.5-6.037,1.321,1.321,0,0,0-1.291-1.043H76.626l0-5.616h2.265a1.321,1.321,0,0,0,1.291-1.043,18.078,18.078,0,0,1,2.5-6.037,1.32,1.32,0,0,0-.175-1.65l-1.6-1.6,3.973-3.97,1.595,1.6a1.322,1.322,0,0,0,1.651.175,18.07,18.07,0,0,1,6.037-2.5A1.321,1.321,0,0,0,95.214,78.9V76.641h5.616V78.9a1.32,1.32,0,0,0,1.043,1.291,18.084,18.084,0,0,1,6.037,2.5,1.32,1.32,0,0,0,1.65-.175l1.6-1.595,3.973,3.97-1.6,1.6a1.32,1.32,0,0,0-.175,1.651,18.089,18.089,0,0,1,2.5,6.037,1.32,1.32,0,0,0,1.291,1.043h2.269v5.616H117.15a1.321,1.321,0,0,0-1.291,1.043,18.074,18.074,0,0,1-2.5,6.037,1.321,1.321,0,0,0,.175,1.651l1.606,1.606-3.97,3.973-1.608-1.608a1.32,1.32,0,0,0-1.651-.175,18.089,18.089,0,0,1-6.037,2.5,1.321,1.321,0,0,0-1.043,1.291v2.279H95.214v-2.279a1.321,1.321,0,0,0-1.043-1.291A18.078,18.078,0,0,1,88.134,113.36Zm0,0" transform="translate(-64.214 -64.228)" fill="#a7b72d"></path><path d="M195.2,184.284A10.913,10.913,0,1,0,184.284,195.2,10.925,10.925,0,0,0,195.2,184.284Zm-19.184,0a8.271,8.271,0,1,1,8.271,8.271A8.28,8.28,0,0,1,176.013,184.284Zm0,0" transform="translate(-150.475 -150.475)" fill="#a7b72d"></path><path d="M339.4,20.451a1.322,1.322,0,1,0-.933-.387A1.33,1.33,0,0,0,339.4,20.451Zm0,0" transform="translate(-293.429 -15.457)" fill="#a7b72d"></path><path d="M155.68,474.359a1.321,1.321,0,1,0,.934.387A1.331,1.331,0,0,0,155.68,474.359Zm0,0" transform="translate(-133.974 -411.712)" fill="#a7b72d"></path></g></g></svg>