<svg xmlns="http://www.w3.org/2000/svg" width="31" height="31.304" viewBox="0 0 31 31.304"><g transform="translate(0 0.125)"><circle cx="15.5" cy="15.5" r="15.5" transform="translate(0 0.178)" fill="#f0f0f0"></circle><g transform="translate(0.533 3.237)"><path d="M244.87,193.251h16.138a15.482,15.482,0,0,0-.533-4.034h-15.6Z" transform="translate(-230.61 -181.148)" fill="#d80027"></path><path d="M244.87,59.686h13.868a15.547,15.547,0,0,0-3.568-4.034h-10.3Z" transform="translate(-230.61 -55.652)" fill="#d80027"></path><path d="M106.271,459.71a15.4,15.4,0,0,0,9.627-3.362H96.644A15.4,15.4,0,0,0,106.271,459.71Z" transform="translate(-91.338 -432.141)" fill="#d80027"></path><path d="M10.556,326.816H36.947a15.373,15.373,0,0,0,1.737-4.034H8.819A15.373,15.373,0,0,0,10.556,326.816Z" transform="translate(-8.819 -306.644)" fill="#d80027"></path></g><path d="M7.164,2.415H8.573l-1.311.952.5,1.541L6.452,3.956l-1.311.952.433-1.331a15.55,15.55,0,0,0-3,3.343h.452l-.834.606q-.2.325-.374.661l.4,1.226-.743-.54q-.277.587-.506,1.2l.439,1.351h1.62l-1.311.952.5,1.541L.9,12.966l-.785.571A15.614,15.614,0,0,0,0,15.465H15.465V0A15.392,15.392,0,0,0,7.164,2.415Zm.6,11.5-1.311-.952-1.311.952.5-1.541-1.311-.952h1.62l.5-1.541.5,1.541h1.62l-1.311.952Zm-.5-6.046.5,1.541L6.452,8.461l-1.311.952.5-1.541L4.331,6.92h1.62l.5-1.541.5,1.541h1.62Zm6.048,6.046L12,12.966l-1.311.952.5-1.541-1.311-.952H11.5L12,9.884l.5,1.541h1.62l-1.311.952Zm-.5-6.046.5,1.541L12,8.461l-1.311.952.5-1.541L9.878,6.92H11.5L12,5.379l.5,1.541h1.62Zm0-4.505.5,1.541L12,3.956l-1.311.952.5-1.541L9.878,2.415H11.5L12,.874l.5,1.541h1.62Z" transform="translate(0 -0.125)" fill="#0052b4"></path></g></svg>