<svg xmlns="http://www.w3.org/2000/svg" width="79.12" height="71.398" viewBox="0 0 79.12 71.398"><g transform="translate(-1011.379 -1229.474)"><path d="M1073.958,1243.635c-6.494-3.247-.034-.261-29.336-13.447a2.285,2.285,0,0,0-1.876,0c-29.3,13.187-22.793,10.176-29.483,13.521a2.285,2.285,0,0,0,2.044,4.088l1.715-.858v34.085a2.285,2.285,0,0,0,2.285,2.285h48.752a2.285,2.285,0,0,0,2.285-2.285v-34.085c1.669.834,1.909,1.026,2.588,1.026a2.286,2.286,0,0,0,1.024-4.33Zm-30.273-8.857,22.091,9.941v2.331h-44.182v-2.331Zm-22.091,26.593h10.055v7.618h-10.055Zm0,17.368v-5.18h12.34a2.285,2.285,0,0,0,2.285-2.285v-12.188a2.285,2.285,0,0,0-2.285-2.285h-12.34v-5.18h44.182v5.18h-12.34a2.285,2.285,0,0,0-2.285,2.285v12.188a2.286,2.286,0,0,0,2.285,2.285h12.34v5.18Zm44.182-9.75H1055.72v-7.618h10.055Z" transform="translate(0 -0.001)" fill="#315372" stroke="#fff" stroke-width="1"></path><path d="M1454.746,1278.739h-1.523v-44.182h1.523a2.285,2.285,0,0,0,0-4.57h-7.465a2.285,2.285,0,0,0,0,4.57h1.371v44.182h-1.371a2.285,2.285,0,0,0,0,4.57h7.465a2.285,2.285,0,0,0,0-4.57Z" transform="translate(-367.032 0)" fill="#cbd483" stroke="#fff" stroke-width="1"></path><path d="M1096.01,1614.009a2.286,2.286,0,0,0-2.285,2.285v1.371h-44.182v-1.371a2.285,2.285,0,1,0-4.571,0v7.313a2.285,2.285,0,1,0,4.571,0v-1.371h44.182v1.371a2.285,2.285,0,1,0,4.571,0v-7.313A2.285,2.285,0,0,0,1096.01,1614.009Z" transform="translate(-27.949 -325.52)" fill="#cbd483" stroke="#fff" stroke-width="1"></path></g></svg>