<svg xmlns="http://www.w3.org/2000/svg" width="75.902" height="49.625" viewBox="0 0 75.902 49.625"><g transform="translate(-192.911 -976.979)"><path d="M412.649,234.621s-13.966-.923-16.621,7.964,0,14.889,1.385,16.735,2.885,8.541,2.885,10.272,0,4.963,2.886,6.925a19.1,19.1,0,0,0,11.773,2.886c4.04-.462,7.041-2.424,8.426-5.656s.693-8.079,1.732-10.272,3.578-5.886,3.809-8.079,1.1-8.607,0-11.542C427.768,240.777,422.344,234.736,412.649,234.621Z" transform="translate(-181.374 743.407)" fill="none" stroke="#315372" stroke-miterlimit="10" stroke-width="2"/><path d="M390.309,241.644c-3.08-.943-13.675-3.208-20.1,7.693a.826.826,0,0,0,.279,1.119c2.8,1.706,13.766,7.136,20.333-7.69A.827.827,0,0,0,390.309,241.644Z" transform="translate(-176.095 742.088)" fill="none" stroke="#315372" stroke-miterlimit="10" stroke-width="2"/><path d="M437.285,242.068c2.741-.836,16.3-4.236,20.824,8.692a.471.471,0,0,1-.312.609c-2.628.731-15.589,3.629-20.8-8.664A.473.473,0,0,1,437.285,242.068Z" transform="translate(-190.327 742.034)" fill="none" stroke="#315372" stroke-miterlimit="10" stroke-width="2"/><path d="M401.893,279.013c4.385-6.24,11.723-2.277,11.723-2.277s8.041-3.945,12.144,2.361" transform="translate(-182.864 734.701)" fill="none" stroke="#315372" stroke-miterlimit="10" stroke-width="2"/><circle cx="1.321" cy="1.321" r="1.321" transform="translate(225.411 1014.585)" fill="#a7b72d"/><circle cx="1.321" cy="1.321" r="1.321" transform="translate(233.845 1014.585)" fill="#a7b72d"/><path d="M396.964,242.786s12.4,3.224,11.807,25.976" transform="translate(-181.814 741.663)" fill="none" stroke="#315372" stroke-miterlimit="10" stroke-width="2"/><path d="M433.971,242.679s-12.4,3.224-11.807,25.976" transform="translate(-187.174 741.686)" fill="none" stroke="#315372" stroke-miterlimit="10" stroke-width="2"/><path d="M427.071,260.626s2.868-2.109,5.567-.168C432.638,260.457,430.445,264.168,427.071,260.626Z" transform="translate(-188.223 738.076)" fill="none" stroke="#315372" stroke-miterlimit="10" stroke-width="2"/><path d="M399.536,260.733s2.868-2.109,5.566-.168C405.1,260.564,402.909,264.275,399.536,260.733Z" transform="translate(-182.362 738.053)" fill="none" stroke="#315372" stroke-miterlimit="10" stroke-width="2"/><path d="M435.429,279.027l.168,4.3s7.59,1.265,10.2,4.3-4.554-5.988-5.988-6.325,4.723-.843,7.927-.253-5.988-2.361-7.421-2.53,8.012-2.7,9.7-3.036S441.163,272.786,435.429,279.027Z" transform="translate(-190.002 734.855)" fill="#a7b72d" stroke="#a7b72d" stroke-miterlimit="10" stroke-width="2"/><path d="M394.439,279.706l.9,4.21s-7.043,3.1-8.827,6.687,2.935-6.927,4.241-7.607-4.785.348-7.745,1.711,5.22-3.766,6.567-4.284-8.43-.638-10.148-.549S387.341,275.074,394.439,279.706Z" transform="translate(-178.038 734.229)" fill="#a7b72d" stroke="#a7b72d" stroke-miterlimit="10" stroke-width="2"/></g></svg>