<svg xmlns="http://www.w3.org/2000/svg" width="57.097" height="39.815" viewBox="0 0 57.097 39.815"><g transform="translate(-1506 -1022.638)"><path d="M1557.034,1026.189l1.668-1.583,1.879-.692,1.731.3,2.028,1.385.247,2.572-1.731,4.3-3.264,2.621-2.558,2.473-3.97-3.759-3.61-3.808s-.049-2.374,0-2.621.841-2.225.841-2.225l1.187-.94,2.077-.3,2.127.692Z" transform="translate(-21.534 -0.375)" fill="#a7b72d"/><path d="M54.42,177.368V139.726H47.729v37.642H46.057v-25.1H39.365v25.1H37.693V158.963H31v18.406H29.329v-15.06H22.638v15.06H20.965V165.654H14.274v11.715H12.6V169H5.91v8.369H0v1.673H57.1v-1.673H54.42ZM49.4,141.4h3.346v35.97H49.4Zm-8.364,12.546h3.346v23.424H41.038Zm-8.364,6.691H36.02v16.733H32.674Zm-8.364,3.346h3.346v13.387H24.311Zm-8.364,3.346h3.346v10.042H15.947Zm-8.364,3.346h3.346v6.7H7.583Z" transform="translate(1506 883.412)" fill="#315372"/><path d="M8.083,14.383a.948.948,0,0,1-.625-.235c-.653-.571-1.283-1.108-1.838-1.581l0,0A34.188,34.188,0,0,1,1.6,8.8,6.017,6.017,0,0,1,0,4.859,5.053,5.053,0,0,1,1.283,1.408,4.347,4.347,0,0,1,4.516,0a4.066,4.066,0,0,1,2.54.877A5.2,5.2,0,0,1,8.083,1.949,5.2,5.2,0,0,1,9.11.877,4.066,4.066,0,0,1,11.651,0a4.347,4.347,0,0,1,3.234,1.408,5.053,5.053,0,0,1,1.282,3.451,6.017,6.017,0,0,1-1.6,3.939,34.184,34.184,0,0,1-4.013,3.767c-.557.474-1.187,1.012-1.842,1.584a.949.949,0,0,1-.625.235ZM4.516.947a3.411,3.411,0,0,0-2.538,1.1A4.11,4.11,0,0,0,.947,4.859,5.063,5.063,0,0,0,2.333,8.193a33.643,33.643,0,0,0,3.9,3.651l0,0c.558.475,1.19,1.014,1.848,1.589.662-.576,1.295-1.116,1.854-1.592a33.652,33.652,0,0,0,3.9-3.651A5.063,5.063,0,0,0,15.22,4.859,4.11,4.11,0,0,0,14.188,2.05a3.41,3.41,0,0,0-2.538-1.1,3.141,3.141,0,0,0-1.961.679A4.6,4.6,0,0,0,8.6,2.89a.6.6,0,0,1-1.027,0A4.591,4.591,0,0,0,6.477,1.626,3.141,3.141,0,0,0,4.516.947Zm0,0" transform="translate(1527.404 1023.138)" fill="#315372" stroke="#315372" stroke-width="1"/></g></svg>