<svg xmlns="http://www.w3.org/2000/svg" xmlns:xlink="http://www.w3.org/1999/xlink" width="102.137" height="100" viewBox="0 0 102.137 100"><defs><filter id="a" x="2.137" y="0" width="100" height="100" filterUnits="userSpaceOnUse"><feOffset dy="3" input="SourceAlpha"/><feGaussianBlur stdDeviation="3" result="b"/><feFlood flood-opacity="0.161"/><feComposite operator="in" in2="b"/><feComposite in="SourceGraphic"/></filter></defs><g transform="translate(-264.863 -889)"><g transform="translate(8 164)"><g transform="matrix(1, 0, 0, 1, 256.86, 725)" filter="url(#a)"><rect width="82" height="82" rx="41" transform="translate(11.14 6)" fill="#a7b72d"/></g><path d="M24.8,8.186a8.358,8.358,0,0,1,6.6,6.6M24.8,1.5A15.044,15.044,0,0,1,38.084,14.772M36.413,28.112v5.015a3.343,3.343,0,0,1-3.644,3.343,33.081,33.081,0,0,1-14.426-5.132,32.6,32.6,0,0,1-10.03-10.03A33.081,33.081,0,0,1,3.181,6.816,3.343,3.343,0,0,1,6.508,3.172h5.015a3.343,3.343,0,0,1,3.343,2.875,21.463,21.463,0,0,0,1.17,4.7,3.343,3.343,0,0,1-.752,3.527l-2.123,2.123a26.745,26.745,0,0,0,10.03,10.03L25.313,24.3a3.343,3.343,0,0,1,3.527-.752,21.463,21.463,0,0,0,4.7,1.17A3.343,3.343,0,0,1,36.413,28.112Z" transform="translate(288.332 753)" fill="none" stroke="#315372" stroke-linecap="round" stroke-linejoin="round" stroke-width="3"/></g><path d="M-3982.39,719.505s10.68-9.073,23.634-10.571a46.768,46.768,0,0,1,23.568,3.7" transform="translate(2345.664 -2539.215) rotate(-49)" fill="none" stroke="#315372" stroke-width="5"/></g></svg>