<svg xmlns="http://www.w3.org/2000/svg" width="751.212" height="31.411" viewBox="0 0 751.212 31.411"><g transform="translate(-525.65 -1483.047)"><path d="M-2187.789,1365l-.125,19.236h-118.251" transform="translate(2840.439 124.223)" fill="none" stroke="#c7d7e8" stroke-width="3"></path><path d="M-3654.218,1467.547h554.471l20.792,18.992h86.131" transform="translate(4264 22)" fill="none" stroke="#c7d7e8" stroke-width="3"></path><path d="M12,6a6,6,0,1,0-6,6A6,6,0,0,0,12,6Z" transform="translate(537.65 1501.611) rotate(90)" fill="#a7b72d"></path><path d="M12,6a6,6,0,1,0-6,6A6,6,0,0,0,12,6Z" transform="translate(611.823 1483.547) rotate(90)" fill="#a7b72d" stroke="rgba(0,0,0,0)" stroke-width="1"></path><path d="M12,6A6,6,0,1,1,6,0,6,6,0,0,1,12,6Z" transform="translate(1264.862 1514.458) rotate(-90)" fill="#a7b72d"></path></g></svg>