<svg xmlns="http://www.w3.org/2000/svg" width="176.109" height="176.568" viewBox="0 0 176.109 176.568"><g transform="translate(-289 -1571)"><g transform="translate(198 1555)"><path d="M64.858,0A64.858,64.858,0,1,1,0,64.858,64.858,64.858,0,0,1,64.858,0Z" transform="translate(114.635 39.635)" fill="#1e3346"></path><path d="M63.485,129.715a65.593,65.593,0,0,1-13.1-1.318,64.7,64.7,0,0,1-23.234-9.759A65.064,65.064,0,0,1,3.613,90.1,64.516,64.516,0,0,1,0,78.747l1.612-.362c6.314,28.649,32.308,49.443,61.808,49.443,34.887,0,63.27-28.229,63.27-62.927S98.307,1.973,63.42,1.973A62.942,62.942,0,0,0,25.99,14.2l-1.116-1.508c.751-.555,1.519-1.1,2.281-1.611A64.906,64.906,0,1,1,76.58,128.4,65.583,65.583,0,0,1,63.485,129.715Z" transform="translate(202.252 192.568) rotate(-150)" fill="#a7b72d"></path><path d="M3.3,1.649A1.649,1.649,0,1,0,1.649,3.3,1.65,1.65,0,0,0,3.3,1.649Z" transform="translate(185.533 168.77) rotate(-60)" fill="#a7b72d"></path><path d="M3.3,1.649A1.649,1.649,0,1,0,1.649,3.3,1.65,1.65,0,0,0,3.3,1.649Z" transform="translate(238.484 124.915) rotate(-60)" fill="#a7b72d"></path></g><g transform="translate(345 1600.891)"><g transform="translate(0 30.11)"><path d="M230.133,191.142H200a.949.949,0,0,0,0,1.9h30.128a.949.949,0,0,0,0-1.9Z" transform="translate(-173.857 -170.757)" fill="#a7b72d" stroke="#a7b72d" stroke-width="1"></path><path d="M230.133,248.475H200a.949.949,0,1,0,0,1.9h30.128a.949.949,0,0,0,0-1.9Z" transform="translate(-173.857 -220.832)" fill="#a7b72d" stroke="#a7b72d" stroke-width="1"></path><path d="M230.133,305.808H200a.949.949,0,0,0,0,1.9h30.128a.949.949,0,0,0,0-1.9Z" transform="translate(-173.857 -270.907)" fill="#a7b72d" stroke="#a7b72d" stroke-width="1"></path><path d="M180.792,125.549h-36.16a5.528,5.528,0,0,0-5.522,5.522v22.738a5.528,5.528,0,0,0,5.522,5.522h25.345a.875.875,0,0,1,.691.335l8.185,10.362a1.631,1.631,0,0,0,1.286.631,1.683,1.683,0,0,0,.552-.094A1.633,1.633,0,0,0,181.8,169v-9.767a5.548,5.548,0,0,0,4.513-5.428V131.071A5.528,5.528,0,0,0,180.792,125.549Zm3.623,28.26a3.636,3.636,0,0,1-3.576,3.622.949.949,0,0,0-.937.949v9.913l-7.744-9.8a2.763,2.763,0,0,0-2.181-1.057H144.632a3.627,3.627,0,0,1-3.623-3.623V131.071a3.627,3.627,0,0,1,3.623-3.623h36.16a3.627,3.627,0,0,1,3.623,3.623Z" transform="translate(-121.5 -113.467)" fill="#a7b72d" stroke="#a7b72d" stroke-width="1"></path><path d="M13.987,57.89a2.531,2.531,0,0,0-1.638.941L5.828,67.089V58.813a.949.949,0,0,0-.937-.949A3.042,3.042,0,0,1,1.9,54.834V35.04A3.035,3.035,0,0,1,4.93,32.009H36.408a3.035,3.035,0,0,1,3.031,3.031V38.7a.949.949,0,1,0,1.9,0V35.04a4.936,4.936,0,0,0-4.93-4.93H4.93A4.936,4.936,0,0,0,0,35.04V54.834A4.953,4.953,0,0,0,3.929,59.66v8.4a1.543,1.543,0,0,0,1.049,1.475,1.592,1.592,0,0,0,.522.089,1.542,1.542,0,0,0,1.215-.6l7.125-9.02a.642.642,0,0,1,.414-.238.949.949,0,1,0-.267-1.88Z" transform="translate(0 -30.11)" fill="#a7b72d" stroke="#a7b72d" stroke-width="1"></path></g></g></g></svg>