<svg xmlns="http://www.w3.org/2000/svg" width="50.144" height="71.317" viewBox="0 0 50.144 71.317"><g transform="translate(-119.459 -56.255)"><g transform="translate(119.459 56.255)"><g transform="translate(0 0)"><path d="M144.531,56.255A25.077,25.077,0,0,0,123.2,94.511l19.9,32.073a2.09,2.09,0,0,0,1.775.988h.016a2.089,2.089,0,0,0,1.776-1.016l19.4-32.383a25.078,25.078,0,0,0-21.536-37.918Zm17.95,35.772-17.633,29.442L126.753,92.31a20.908,20.908,0,1,1,35.728-.283Z" transform="translate(-119.459 -56.255)" fill="#315372"></path></g></g><g transform="translate(131.995 68.791)"><g transform="translate(0)"><path d="M236.635,160.894a12.536,12.536,0,1,0,12.536,12.536A12.55,12.55,0,0,0,236.635,160.894Zm0,20.921a8.385,8.385,0,1,1,8.371-8.385A8.391,8.391,0,0,1,236.635,181.815Z" transform="translate(-224.099 -160.894)" fill="#cbd483"></path></g></g></g></svg>