<svg xmlns="http://www.w3.org/2000/svg" width="60.085" height="57.514" viewBox="0 0 60.085 57.514"><g transform="translate(-127 -144.675)"><g transform="translate(127 144.675)"><g transform="translate(0)"><g transform="translate(0 3.67)"><path d="M177.67,203.229a15.633,15.633,0,0,0,2.752,0,4.935,4.935,0,0,0,1.536-.89l4.938-3.208a.4.4,0,0,0-.095-.725l-5.489-2.191a19.2,19.2,0,0,0-2.666-1.064c-.538-.122-.956.282-1.422.557A31.041,31.041,0,0,0,174.2,197.5a1.012,1.012,0,0,0-.408.57c-.433,1.191-.757,2.435-1.133,3.644L164.5,227.925a8.235,8.235,0,0,1-.253.815c.144-.333-.109.086-.234.234l-1.244,1.478-1.111,1.32a2.49,2.49,0,0,0-.283.336c.009-.017.353.021.047-.049a5.8,5.8,0,0,0-1.383.076l-2.081.115a17.055,17.055,0,0,1-1.924,0l-1.9-.1a5.709,5.709,0,0,0-1.523-.084c-.263.072.062.009.1.072-.086-.126-.2-.242-.3-.357l-1.178-1.4-1.132-1.344c-.1-.122-.215-.241-.31-.369-.142-.191.05.125.029.075-.364-.876-.576-1.852-.857-2.757l-1.932-6.213-4.692-15.089-1.653-5.317c-.212-.681-.282-1.5-.889-1.907-.941-.634-1.971-1.165-2.948-1.742-.506-.3-.9-.7-1.483-.532-2.149.62-4.256,1.7-6.334,2.528l-1.76.7a.4.4,0,0,0-.095.725l5.218,3.39a3,3,0,0,0,1.45.708c1.008.058,2.035,0,3.045,0a.4.4,0,0,0,0-.793c-.971,0-1.95-.038-2.92,0-.082,0-.464-.036-.264.025s-.045-.055-.093-.093c-.314-.249-.689-.448-1.025-.666l-5.011-3.255-.095.725,5.489-2.191,1.584-.632a4.008,4.008,0,0,0,1.081-.432c.03-.029.1-.037.138-.055-.328.149-.321-.134-.07.093a8.708,8.708,0,0,0,1.4.829l1.619.957c.188.111.376.244.573.339.1.046.422.32.228.071s.078.413.119.545l1.368,4.4c2.642,8.5,5.212,17.019,7.927,25.492.384,1.2,1.58,2.169,2.375,3.112.411.488.69,1.049,1.328,1.15a34.448,34.448,0,0,0,3.464.191,17.075,17.075,0,0,0,1.924,0,31.1,31.1,0,0,0,3.419-.188c.647-.11,1-.808,1.412-1.3a23.113,23.113,0,0,0,2.013-2.39,9.21,9.21,0,0,0,.721-2.128l1.746-5.615,4.7-15.127,1.832-5.893.54-1.737a2.245,2.245,0,0,0,.143-.459c.016-.261.217-.114-.119.061.886-.461,1.733-1.024,2.593-1.532a8.171,8.171,0,0,0,1.317-.778c.109-.1.354-.108.075-.112-.328,0,0,.054.054.1a11.755,11.755,0,0,0,2.6,1.039l3.729,1.488,1.76.7-.095-.725-4.714,3.062-1.08.7c-.109.071-.216.149-.329.214-.206.117.081.006.05.011a17.587,17.587,0,0,1-2.752,0,.4.4,0,0,0,0,.793Z" transform="translate(-127 -195.129)" fill="#fff"/></g><path d="M432.974,432.183l-1.656,16.206c-.041.406.594.4.635,0l1.656-16.206c.042-.406-.594-.4-.635,0Z" transform="translate(-409.18 -410.987)" fill="#fff"/><path d="M375.746,153.507l-3.259,9.281a1.513,1.513,0,0,0-.182.884,5.048,5.048,0,0,0,.616,1.067l3.049,5.281,2.309,4a.318.318,0,0,0,.548-.32l-4.9-8.493a14.179,14.179,0,0,0-.945-1.636c-.171-.219-.04-.306-.1.011a1.8,1.8,0,0,1,.136-.389c.74-1.594,1.193-3.4,1.775-5.055l1.566-4.46c.136-.386-.477-.552-.612-.169Z" transform="translate(-354.441 -152.663)" fill="#fff"/><path d="M620.326,186.244l-.709-7.475c-.27-2.849-.686-5.724-.815-8.583-.007-.159,0-.169-.055.008a1.294,1.294,0,0,1,.165-.287c.3-.454.553-.958.827-1.432l2.728-4.724c.7-1.213,1.464-2.409,2.109-3.653.306-.591-.013-1-.25-1.615l-3.526-9.1c-.146-.377-.76-.213-.612.169l3.1,7.99.683,1.762c.054.138.113.276.161.416.018.052.134-.307-.011-.1-.69,1-1.237,2.142-1.845,3.2l-2.784,4.821a9.146,9.146,0,0,0-1.335,2.4,9.462,9.462,0,0,0,.211,2.225l.488,5.145.839,8.836c.038.4.673.407.635,0Z" transform="translate(-582.399 -148.843)" fill="#fff"/><g transform="translate(10.134 9.997)"><circle cx="1.244" cy="1.244" r="1.244" transform="translate(0)" fill="#fff"/></g><g transform="translate(47.929 9.997)"><circle cx="1.244" cy="1.244" r="1.244" fill="#fff"/></g><path d="M395.173,146.231a34.69,34.69,0,0,0-4.5-1.459,21.867,21.867,0,0,0-3.607-.014h-6.893a29.257,29.257,0,0,0-4.054,0,12.146,12.146,0,0,0-2.189.757l-2.664.955c-.477.171-.271.938.211.765a46.674,46.674,0,0,1,4.67-1.673c.061-.015-.088.008.129-.01s.446,0,.664,0h9.176c1.425,0,2.933-.142,4.353,0,.048,0,.188.021,0-.01a2.053,2.053,0,0,1,.305.1c.507.178,1.025.333,1.536.5l2.643.858c.487.158.7-.608.211-.765Z" transform="translate(-353.251 -144.675)" fill="#fff"/><g transform="translate(19.012 4.508)"><path d="M440.031,487.6h9.3a.322.322,0,0,0,.317-.317v-9.519a.318.318,0,0,0-.635,0v9.519l.317-.317h-9.3a.318.318,0,0,0,0,.635Z" transform="translate(-435.988 -457.759)" fill="#fff"/><g transform="translate(11.992 17.305)"><circle cx="1.35" cy="1.35" r="1.35" fill="#fff"/></g><path d="M388.847,223.325l3.386-1.49c.242-.106.482-.227.729-.321.285-.108-.064-.016.061-.029a11.987,11.987,0,0,1,1.2,0h7.529a.318.318,0,0,0,0-.635H394a3.959,3.959,0,0,0-1.939.369l-3.538,1.557c-.373.164-.05.711.32.548Z" transform="translate(-388.361 -219.818)" fill="#fff"/><g transform="translate(13.39)"><circle cx="1.35" cy="1.35" r="1.35" fill="#fff"/></g><path d="M505.136,355.747H492.991a.322.322,0,0,0-.317.317v11.8a.318.318,0,0,0,.635,0v-11.8l-.317.317h12.144a.318.318,0,0,0,0-.635Z" transform="translate(-485.086 -344.901)" fill="#fff"/><g transform="translate(6.555 22.958)"><circle cx="1.35" cy="1.35" r="1.35" fill="#fff"/></g><path d="M493.309,306.432v-3.9a.318.318,0,0,0-.635,0v3.9a.318.318,0,0,0,.635,0Z" transform="translate(-485.086 -295.269)" fill="#fff"/><g transform="translate(6.555 4.466)"><circle cx="1.35" cy="1.35" r="1.35" fill="#fff"/></g></g></g><g transform="translate(7.168 46.606)"><path d="M225.8,829.3c.291-2.08,1.677-3.207,3.916-3.207,2.3,0,3.3,1.271,3.055,3.048l-.123.881a.764.764,0,0,1-.852.722h-4.016l-.051.361c-.107.766.274,1.141,1.14,1.141a1.836,1.836,0,0,0,1.453-.578c.294-.347.476-.4.864-.188l.657.361c.349.188.381.477.112.852a3.975,3.975,0,0,1-3.366,1.344c-2.369,0-3.277-1.257-3-3.207Zm4.8-.361c.1-.737-.278-1.112-1.13-1.112s-1.338.376-1.441,1.112l-.032.231h2.571Z" transform="translate(-225.543 -823.126)" fill="#fff"/><path d="M343.48,785.372c.4,0,.516.13.458.549l-.117.838c-.058.419-.207.549-.611.549h-2.687a1.283,1.283,0,0,0-1.464,1.17l-.01.072h4c.39,0,.5.13.445.535l-.9,6.444c-.057.4-.2.535-.595.535h-1.127c-.4,0-.516-.13-.46-.535l.706-5.042h-2.34l-.706,5.042c-.057.4-.219.535-.624.535h-1.1c-.4,0-.531-.13-.474-.535l.706-5.042h-.621c-.39,0-.516-.13-.46-.535l.121-.867c.057-.4.219-.535.609-.535h.621l.008-.058c.285-2.037,1.622-3.121,3.875-3.121Z" transform="translate(-327.49 -785.372)" fill="#fff"/><path d="M459.041,805.233c.39,0,.5.13.445.535l-.168,1.2h1.343c.39,0,.5.13.445.535l-.121.867c-.057.4-.2.535-.595.535h-1.344l-.34,2.427c-.152,1.084.144,1.344,1.141,1.344.4,0,.516.13.458.549l-.127.91c-.059.419-.2.535-.611.549a3.478,3.478,0,0,1-2.609-.665,3.076,3.076,0,0,1-.445-2.6l.352-2.514H456.1c-.4,0-.516-.13-.46-.535l.121-.867c.057-.4.2-.535.609-.535h.766l.168-1.2c.057-.4.219-.535.61-.535Z" transform="translate(-438.89 -803.788)" fill="#fff"/><path d="M534.027,829.3c.291-2.08,1.677-3.207,3.916-3.207,2.3,0,3.3,1.271,3.055,3.048l-.123.881a.764.764,0,0,1-.852.722h-4.016l-.051.361c-.107.766.274,1.141,1.14,1.141a1.836,1.836,0,0,0,1.453-.578c.294-.347.476-.4.864-.188l.657.361c.349.188.381.477.112.852a3.975,3.975,0,0,1-3.366,1.344c-2.369,0-3.277-1.257-3-3.207Zm4.8-.361c.1-.737-.278-1.112-1.13-1.112s-1.338.376-1.441,1.112l-.032.231H538.8Z" transform="translate(-511.345 -823.126)" fill="#fff"/><path d="M641.8,829.151c.273-1.95,1.555-3.063,3.867-3.063,1.661,0,2.652.766,2.895,1.922.071.419-.054.592-.481.751l-.967.3c-.441.159-.615.058-.715-.361a.982.982,0,0,0-1.081-.737A1.169,1.169,0,0,0,644,829.05l-.283,2.023q-.152,1.084,1.019,1.083a1.362,1.362,0,0,0,1.288-.737c.216-.4.413-.477.814-.347l.9.289c.386.13.482.376.268.766a3.786,3.786,0,0,1-3.59,1.907c-2.2,0-3.15-1.026-2.865-3.063Z" transform="translate(-611.239 -823.126)" fill="#fff"/><path d="M746.867,785.372c.4,0,.516.13.459.535l-.354,2.528.206-.029a8.652,8.652,0,0,1,1.151-.072q3.12,0,2.7,2.991l-.588,4.2c-.057.4-.2.535-.595.535h-1.127c-.4,0-.516-.13-.46-.535l.578-4.132c.1-.722-.253-1.083-1.076-1.083a4.877,4.877,0,0,0-1.011.1l-.06.014-.714,5.1c-.057.4-.2.535-.609.535h-1.113c-.4,0-.516-.13-.46-.535l1.347-9.622c.057-.4.2-.535.609-.535Z" transform="translate(-706.086 -785.372)" fill="#fff"/></g></g></g></svg>