<svg xmlns="http://www.w3.org/2000/svg" width="72.922" height="37.685" viewBox="0 0 72.922 37.685"><g transform="translate(-197.94 -953)"><path d="M159.07,199.631s17.682,11.335,18.248,12.128,1.375,1.926.014,2.777-1.785,1.317-1.785,2.125c0,.77-1.12,6.788-1.224,7.353a.3.3,0,0,1-.029.085c-.232.476-2.478,4.775-6.015,1.318-3.569-3.487-5.125-9.064-5.261-9.569a.309.309,0,0,0-.032-.077,2.413,2.413,0,0,0-2.443-1.235c-1.7.255-1.587,2.663-2.721,3.684s-3.74,2.267-4.194,2.153c-.4-.1,2.256,10.348,2.877,12.766a.4.4,0,0,1-.389.5H151.8a.4.4,0,0,1-.392-.318l-2.187-10.509a.789.789,0,0,0-1.528-.064l-3.16,10.605a.4.4,0,0,1-.383.286h-4.078a.4.4,0,0,1-.391-.486l2.5-11.418a.4.4,0,0,0-.4-.486c-2.571.1-14.154.334-19.219-2.872a.387.387,0,0,0-.5.063c-.887.97-4.132,4.558-4.791,5.876-.67,1.339-1.339,7.564-1.5,9.095a.393.393,0,0,1-.383.353l-3.958.14a.4.4,0,0,1-.4-.5c.634-2.428,3.3-12.748,3.52-15.891a41.487,41.487,0,0,1,1.105-7.821c.51-1.871.454-1.673.454-1.673s-2.409,5.667-3,6.773-2.21,4.676-3.06,5.44a1.927,1.927,0,0,1-2.721-.51,3.644,3.644,0,0,1,.68-3.23,29.9,29.9,0,0,0,4.506-6.971c.68-1.87,2.3-4.76,3.06-6.715s2.126-4.591,3.911-4.591c1.655,0,33,.341,37.56.391a1.8,1.8,0,0,1,1.009.323Z" transform="translate(91.778 755.786)" fill="none" stroke="#315372" stroke-miterlimit="10" stroke-width="2"/><path d="M121,229.153a10.217,10.217,0,0,0,2.55,2.607c1.5,1.126,2.46,5.9,2.744,7.515a.644.644,0,0,0,.636.532h2.623a.731.731,0,0,0,.7-.931l-2.059-7.23s3.8-1.246,4.76-4.647" transform="translate(88.932 749.839)" fill="none" stroke="#315372" stroke-miterlimit="10" stroke-width="2"/><circle cx="6.574" cy="6.574" r="6.574" transform="translate(215.145 958.137)" fill="none" stroke="#a7b72d" stroke-miterlimit="10" stroke-width="2"/><g transform="translate(241.584 960.209) rotate(-21)"><path d="M171.7,208.718a.35.35,0,0,1,.38.175.942.942,0,0,1-.49,1.328,3.191,3.191,0,0,0-2.064,3.181.942.942,0,0,1-1.014.987.35.35,0,0,1-.314-.276,4.526,4.526,0,0,1,3.5-5.394Z" transform="translate(-163.974 -204.773)" fill="#a7b72d"/><path d="M170.972,207.528a5.225,5.225,0,0,0-4,6.163.355.355,0,0,1-.106.332.915.915,0,0,1-1.044.142.353.353,0,0,1-.181-.244,6.572,6.572,0,0,1,5-7.7.354.354,0,0,1,.3.066.916.916,0,0,1,.3,1.012.355.355,0,0,1-.26.232Z" transform="translate(-163.44 -204.257)" fill="#a7b72d"/><path d="M170.342,204.475a1,1,0,0,1,.018.125.35.35,0,0,1-.28.371,7.3,7.3,0,0,0-5.663,8.726.352.352,0,0,1-.236.41.821.821,0,0,1-.086.024.907.907,0,0,1-1.119-.762,8.817,8.817,0,0,1,6.221-9.583.906.906,0,0,1,1.146.689Z" transform="translate(-162.9 -203.748)" fill="#a7b72d"/></g><g transform="translate(217.511 961.857)"><g transform="translate(0 0)"><path d="M138.4,208.283a.646.646,0,0,0-.911.044l-3.934,4.333-1.9-1.933a.645.645,0,1,0-.92.9l2.379,2.418a.645.645,0,0,0,.46.193h.012a.646.646,0,0,0,.465-.211l4.393-4.837A.646.646,0,0,0,138.4,208.283Z" transform="translate(-130.553 -208.116)" fill="#a7b72d"/></g></g><path d="M179.576,205.714s-4.676,4.336-4.506,10.2l1.105.425s1.361-6.885,4.845-9.86Z" transform="translate(77.762 754.237)" fill="#315372"/></g></svg>