<svg xmlns="http://www.w3.org/2000/svg" xmlns:xlink="http://www.w3.org/1999/xlink" width="20" height="20" viewBox="0 0 20 20">
  <defs>
    <path id="a" d="M12.58 0a4.103 4.103 0 0 1 4.092 4.092v8.488a4.103 4.103 0 0 1-4.092 4.092H4.092A4.103 4.103 0 0 1 0 12.58V4.092A4.103 4.103 0 0 1 4.092 0h8.488zm2.37 12.387h-.009V4.286a2.564 2.564 0 0 0-2.554-2.555H4.286A2.564 2.564 0 0 0 1.73 4.286v8.1a2.564 2.564 0 0 0 2.555 2.555h8.109a2.564 2.564 0 0 0 2.555-2.554zm3.319-8.303A4.09 4.09 0 0 1 20 7.42v8.488A4.103 4.103 0 0 1 15.908 20H7.42c-1.37 0-2.596-.69-3.336-1.731h11.63a2.564 2.564 0 0 0 2.555-2.555V4.084zm-6.35 2.36c.11 2.38-1.708 5.032-4.926 5.032-.979 0-1.89-.28-2.657-.76a3.547 3.547 0 0 0 2.566-.7 1.73 1.73 0 0 1-1.62-1.175c.273.05.54.036.784-.03-.834-.162-1.41-.895-1.39-1.679.233.127.5.203.785.212a1.669 1.669 0 0 1-.537-2.259 4.962 4.962 0 0 0 3.573 1.768c-.253-1.058.57-2.077 1.689-2.077.498 0 .948.205 1.264.534a3.531 3.531 0 0 0 1.101-.41c-.13.394-.404.726-.762.936.35-.041.685-.132.995-.267-.232.34-.526.637-.864.876z"/>
  </defs>
  <use xlink:href="#a"/>
</svg>
