<svg xmlns="http://www.w3.org/2000/svg" width="30.735" height="52.723" viewBox="0 0 30.735 52.723"><g transform="translate(-1445 -1294.598)"><g transform="translate(1446 1295.598)"><path d="M186.2,349.257l3.539.039a2.668,2.668,0,0,1,2.639,2.641l.014,1.375a2.665,2.665,0,0,0,.385,1.354l8.434,13.94a2.665,2.665,0,0,1,.386,1.381V397.31a2.669,2.669,0,0,1-2.669,2.669h-23.4a2.669,2.669,0,0,1-2.669-2.669V370.849a2.668,2.668,0,0,1,.436-1.462l9.731-14.859a2.667,2.667,0,0,0,.435-1.38l.04-1.3A2.668,2.668,0,0,1,186.2,349.257Z" transform="translate(-172.857 -349.257)" fill="none" stroke="#315372" stroke-miterlimit="10" stroke-width="2"/><line x2="8.57" transform="translate(10.96 4.117)" fill="none" stroke="#315372" stroke-miterlimit="10" stroke-width="2"/><path d="M173.571,389.182c.594,0,9.8-1.334,13.367.381s6.435,5.528,14.653,2.573" transform="translate(-173.095 -362.382)" fill="none" stroke="#315372" stroke-miterlimit="10" stroke-width="2"/><path d="M193.5,365.067c-.2-.278-5.225,6.777-2.455,10.187a3.33,3.33,0,0,0,4.536.51C197.2,374.543,198.323,371.687,193.5,365.067Z" transform="translate(-178.635 -354.517)" fill="none" stroke="#a7b72d" stroke-miterlimit="10" stroke-width="2"/></g></g></svg>