<svg xmlns="http://www.w3.org/2000/svg" width="176.109" height="176.568" viewBox="0 0 176.109 176.568"><g transform="translate(-991 -1571)"><g transform="translate(900 1555)"><path d="M64.858,0A64.858,64.858,0,1,1,0,64.858,64.858,64.858,0,0,1,64.858,0Z" transform="translate(114.635 39.635)" fill="#1e3346"></path><path d="M63.485,129.715a65.593,65.593,0,0,1-13.1-1.318,64.7,64.7,0,0,1-23.234-9.759A65.064,65.064,0,0,1,3.613,90.1,64.516,64.516,0,0,1,0,78.747l1.612-.362c6.314,28.649,32.308,49.443,61.808,49.443,34.887,0,63.27-28.229,63.27-62.927S98.307,1.973,63.42,1.973A62.942,62.942,0,0,0,25.99,14.2l-1.116-1.508c.751-.555,1.519-1.1,2.281-1.611A64.906,64.906,0,1,1,76.58,128.4,65.583,65.583,0,0,1,63.485,129.715Z" transform="translate(202.252 192.568) rotate(-150)" fill="#a7b72d"></path><path d="M3.3,1.649A1.649,1.649,0,1,0,1.649,3.3,1.65,1.65,0,0,0,3.3,1.649Z" transform="translate(185.533 168.77) rotate(-60)" fill="#a7b72d"></path><path d="M3.3,1.649A1.649,1.649,0,1,0,1.649,3.3,1.65,1.65,0,0,0,3.3,1.649Z" transform="translate(238.484 124.915) rotate(-60)" fill="#a7b72d"></path></g><g transform="translate(1000.996 1620)"><g transform="translate(48.003)"><path d="M233.292,7.733a1.289,1.289,0,0,0,1.289-1.289V1.289a1.289,1.289,0,1,0-2.578,0V6.444A1.289,1.289,0,0,0,233.292,7.733Z" transform="translate(-202.36)" fill="#a7b72d"></path><path d="M140.152,26.549l2.578,4.463a1.289,1.289,0,0,0,2.241-1.274l-.009-.015-2.578-4.463a1.289,1.289,0,0,0-2.241,1.274Z" transform="translate(-125.158 -20.644)" fill="#a7b72d"></path><path d="M73.249,94.373l.015.009,4.463,2.578a1.289,1.289,0,0,0,1.3-2.224l-.015-.009L74.552,92.15a1.289,1.289,0,1,0-1.3,2.224Z" transform="translate(-68.647 -77.156)" fill="#a7b72d"></path><path d="M55.736,185.289A1.289,1.289,0,0,0,54.447,184H49.292a1.289,1.289,0,1,0,0,2.578h5.155A1.289,1.289,0,0,0,55.736,185.289Z" transform="translate(-48.003 -154.357)" fill="#a7b72d"></path><path d="M77.741,260.14l-.015.009-4.463,2.578a1.289,1.289,0,0,0,1.274,2.241l.015-.009,4.463-2.578a1.289,1.289,0,0,0-1.274-2.241Z" transform="translate(-68.646 -218.09)" fill="#a7b72d"></path><path d="M370.014,262.735l-.015-.009-4.463-2.578a1.289,1.289,0,1,0-1.3,2.224l.015.009,4.463,2.578a1.289,1.289,0,0,0,1.3-2.224Z" transform="translate(-312.752 -218.09)" fill="#a7b72d"></path><path d="M390.447,184h-5.155a1.289,1.289,0,1,0,0,2.578h5.155a1.289,1.289,0,0,0,0-2.578Z" transform="translate(-329.873 -154.357)" fill="#a7b72d"></path><path d="M364.938,97.132a1.289,1.289,0,0,0,.644-.173l4.463-2.578a1.289,1.289,0,0,0-1.274-2.241l-.015.009-4.463,2.578a1.289,1.289,0,0,0,.645,2.4Z" transform="translate(-312.798 -77.155)" fill="#a7b72d"></path><path d="M308.641,31.484h0a1.289,1.289,0,0,0,1.76-.473h0l2.578-4.463a1.289,1.289,0,0,0-2.224-1.3l-.009.015-2.578,4.463A1.289,1.289,0,0,0,308.641,31.484Z" transform="translate(-266.112 -20.643)" fill="#a7b72d"></path><path d="M182.18,185.776a1.289,1.289,0,0,0,1.289-1.289V170.311h2.578a5.155,5.155,0,1,0-5.155-5.155v2.578h-2.578v-2.578a5.155,5.155,0,1,0-5.155,5.155h2.578v14.177a1.289,1.289,0,1,0,2.578,0V170.311h2.578v14.177A1.289,1.289,0,0,0,182.18,185.776Zm1.289-20.621a2.578,2.578,0,1,1,2.578,2.578h-2.578Zm-7.733,2.578h-2.578a2.578,2.578,0,1,1,2.578-2.578Z" transform="translate(-148.671 -134.224)" fill="#a7b72d"></path><path d="M133.687,64.026a20.621,20.621,0,0,0-14.073,36.537,3.841,3.841,0,0,1,1.472,2.948v3.022a3.866,3.866,0,0,0,2.578,3.629v1.526a3.842,3.842,0,0,0,1.005,2.578,3.807,3.807,0,0,0,0,5.155,3.85,3.85,0,0,0,2.861,6.444,1.257,1.257,0,0,0,1.059-1.981,1.366,1.366,0,0,0-.144-.223,1.332,1.332,0,0,0-.358-.235c-.037-.019-.075-.035-.113-.05a1.366,1.366,0,0,0-.406-.081c-.013,0-.024-.008-.037-.008a1.289,1.289,0,1,1,0-2.578h5.155a1.289,1.289,0,1,0,0-2.578H127.53a1.289,1.289,0,0,1,0-2.578h5.155a1.289,1.289,0,1,0,0-2.578H127.53a1.289,1.289,0,0,1-1.289-1.289V110.4h6.444a1.289,1.289,0,1,0,0-2.578h-7.733a1.289,1.289,0,0,1-1.289-1.289V103.51a6.407,6.407,0,0,0-2.417-4.943A18.043,18.043,0,0,1,133.564,66.6a18.251,18.251,0,0,1,17.164,17.908,17.938,17.938,0,0,1-6.7,14.129,6.389,6.389,0,0,0-2.326,5.017v2.873a1.289,1.289,0,0,1-1.289,1.289h-3.866a1.289,1.289,0,0,0,0,2.578h2.578v1.289a1.289,1.289,0,0,1-1.289,1.289h-1.289a1.289,1.289,0,0,0,0,2.578h1.289a1.289,1.289,0,1,1,0,2.578h-1.289a1.289,1.289,0,0,0,0,2.578h1.289a1.289,1.289,0,1,1,0,2.578H131.4a1.289,1.289,0,1,0,0,2.578h4.935a3.866,3.866,0,0,1-6.536,1.28,1.289,1.289,0,1,0-1.925,1.714,6.43,6.43,0,0,0,11.15-3.2,3.829,3.829,0,0,0,1.682-6.24,3.807,3.807,0,0,0,0-5.155,3.842,3.842,0,0,0,1.005-2.578v-1.526a3.866,3.866,0,0,0,2.578-3.629V103.66a3.874,3.874,0,0,1,1.367-3.012,20.5,20.5,0,0,0,7.654-16.154A20.861,20.861,0,0,0,133.687,64.026Z" transform="translate(-101.754 -53.691)" fill="#a7b72d"></path></g></g></g></svg>