<svg xmlns="http://www.w3.org/2000/svg" width="64.5" height="71.791" viewBox="0 0 64.5 71.791"><g transform="translate(-1082 -2190.957)"><g transform="translate(694 1209.956)"><path d="M451.1,997.827H424.457V982.4a1.4,1.4,0,0,0-1.4-1.4H389.4a1.4,1.4,0,0,0-1.4,1.4v68.987a1.4,1.4,0,0,0,1.4,1.4h61.7a1.4,1.4,0,0,0,1.4-1.4v-52.16A1.4,1.4,0,0,0,451.1,997.827Zm-26.641,2.8H449.7v35.334H424.457Zm-22.435,49.356V1038.77h8.413v11.217Zm9.815-14.022H400.62a1.4,1.4,0,0,0-1.4,1.4v12.62H390.8V983.8h30.848v66.182h-8.413v-12.62A1.4,1.4,0,0,0,411.837,1035.965Zm12.619,14.022V1038.77H449.7v11.217Z" fill="#315372"></path><path d="M499.4,1026.61h2.8a1.4,1.4,0,0,0,1.4-1.4v-2.8a1.4,1.4,0,0,0-1.4-1.4h-2.8a1.4,1.4,0,0,0-1.4,1.4v2.8A1.4,1.4,0,0,0,499.4,1026.61Z" transform="translate(-94.575 -34.392)" fill="#cbd483"></path><path d="M499.4,1096.61h2.8a1.4,1.4,0,0,0,1.4-1.4v-2.8a1.4,1.4,0,0,0-1.4-1.4h-2.8a1.4,1.4,0,0,0-1.4,1.4v2.8A1.4,1.4,0,0,0,499.4,1096.61Z" transform="translate(-94.575 -94.577)" fill="#cbd483"></path><path d="M499.4,1166.61h2.8a1.4,1.4,0,0,0,1.4-1.4v-2.8a1.4,1.4,0,0,0-1.4-1.4h-2.8a1.4,1.4,0,0,0-1.4,1.4v2.8A1.4,1.4,0,0,0,499.4,1166.61Z" transform="translate(-94.575 -154.762)" fill="#cbd483"></path><path d="M499.4,1236.609h2.8a1.4,1.4,0,0,0,1.4-1.4v-2.8a1.4,1.4,0,0,0-1.4-1.4h-2.8a1.4,1.4,0,0,0-1.4,1.4v2.8A1.4,1.4,0,0,0,499.4,1236.609Z" transform="translate(-94.575 -214.946)" fill="#cbd483"></path><path d="M499.4,1306.609h2.8a1.4,1.4,0,0,0,1.4-1.4v-2.8a1.4,1.4,0,0,0-1.4-1.4h-2.8a1.4,1.4,0,0,0-1.4,1.4v2.8A1.4,1.4,0,0,0,499.4,1306.609Z" transform="translate(-94.575 -275.13)" fill="#cbd483"></path><path d="M429.4,1026.61h2.8a1.4,1.4,0,0,0,1.4-1.4v-2.8a1.4,1.4,0,0,0-1.4-1.4h-2.8a1.4,1.4,0,0,0-1.4,1.4v2.8A1.4,1.4,0,0,0,429.4,1026.61Z" transform="translate(-34.392 -34.392)" fill="#cbd483"></path><path d="M429.4,1096.61h2.8a1.4,1.4,0,0,0,1.4-1.4v-2.8a1.4,1.4,0,0,0-1.4-1.4h-2.8a1.4,1.4,0,0,0-1.4,1.4v2.8A1.4,1.4,0,0,0,429.4,1096.61Z" transform="translate(-34.392 -94.577)" fill="#cbd483"></path><path d="M429.4,1166.61h2.8a1.4,1.4,0,0,0,1.4-1.4v-2.8a1.4,1.4,0,0,0-1.4-1.4h-2.8a1.4,1.4,0,0,0-1.4,1.4v2.8A1.4,1.4,0,0,0,429.4,1166.61Z" transform="translate(-34.392 -154.762)" fill="#cbd483"></path><path d="M429.4,1236.609h2.8a1.4,1.4,0,0,0,1.4-1.4v-2.8a1.4,1.4,0,0,0-1.4-1.4h-2.8a1.4,1.4,0,0,0-1.4,1.4v2.8A1.4,1.4,0,0,0,429.4,1236.609Z" transform="translate(-34.392 -214.946)" fill="#cbd483"></path><path d="M429.4,1306.609h2.8a1.4,1.4,0,0,0,1.4-1.4v-2.8a1.4,1.4,0,0,0-1.4-1.4h-2.8a1.4,1.4,0,0,0-1.4,1.4v2.8A1.4,1.4,0,0,0,429.4,1306.609Z" transform="translate(-34.392 -275.13)" fill="#cbd483"></path><path d="M572.207,1021h-2.8a1.4,1.4,0,0,0-1.4,1.4v2.8a1.4,1.4,0,0,0,1.4,1.4h2.8a1.4,1.4,0,0,0,1.4-1.4v-2.8A1.4,1.4,0,0,0,572.207,1021Z" transform="translate(-154.762 -34.392)" fill="#cbd483"></path><path d="M572.207,1091h-2.8a1.4,1.4,0,0,0-1.4,1.4v2.8a1.4,1.4,0,0,0,1.4,1.4h2.8a1.4,1.4,0,0,0,1.4-1.4v-2.8A1.4,1.4,0,0,0,572.207,1091Z" transform="translate(-154.762 -94.576)" fill="#cbd483"></path><path d="M572.207,1161h-2.8a1.4,1.4,0,0,0-1.4,1.4v2.8a1.4,1.4,0,0,0,1.4,1.4h2.8a1.4,1.4,0,0,0,1.4-1.4v-2.8A1.4,1.4,0,0,0,572.207,1161Z" transform="translate(-154.762 -154.761)" fill="#cbd483"></path><path d="M572.207,1231h-2.8a1.4,1.4,0,0,0-1.4,1.4v2.8a1.4,1.4,0,0,0,1.4,1.4h2.8a1.4,1.4,0,0,0,1.4-1.4v-2.8A1.4,1.4,0,0,0,572.207,1231Z" transform="translate(-154.762 -214.946)" fill="#cbd483"></path><path d="M572.207,1301h-2.8a1.4,1.4,0,0,0-1.4,1.4v2.8a1.4,1.4,0,0,0,1.4,1.4h2.8a1.4,1.4,0,0,0,1.4-1.4v-2.8A1.4,1.4,0,0,0,572.207,1301Z" transform="translate(-154.762 -275.13)" fill="#cbd483"></path><path d="M757.206,1161h-2.8a1.4,1.4,0,0,0-1.4,1.4v2.8a1.4,1.4,0,0,0,1.4,1.4h2.8a1.4,1.4,0,0,0,1.4-1.4v-2.8A1.4,1.4,0,0,0,757.206,1161Z" transform="translate(-313.821 -154.761)" fill="#cbd483"></path><path d="M757.206,1231h-2.8a1.4,1.4,0,0,0-1.4,1.4v2.8a1.4,1.4,0,0,0,1.4,1.4h2.8a1.4,1.4,0,0,0,1.4-1.4v-2.8A1.4,1.4,0,0,0,757.206,1231Z" transform="translate(-313.821 -214.946)" fill="#cbd483"></path><path d="M757.206,1301h-2.8a1.4,1.4,0,0,0-1.4,1.4v2.8a1.4,1.4,0,0,0,1.4,1.4h2.8a1.4,1.4,0,0,0,1.4-1.4v-2.8A1.4,1.4,0,0,0,757.206,1301Z" transform="translate(-313.821 -275.13)" fill="#cbd483"></path><path d="M687.208,1161h-2.8a1.4,1.4,0,0,0-1.4,1.4v2.8a1.4,1.4,0,0,0,1.4,1.4h2.8a1.4,1.4,0,0,0,1.4-1.4v-2.8A1.4,1.4,0,0,0,687.208,1161Z" transform="translate(-253.638 -154.761)" fill="#cbd483"></path><path d="M687.208,1231h-2.8a1.4,1.4,0,0,0-1.4,1.4v2.8a1.4,1.4,0,0,0,1.4,1.4h2.8a1.4,1.4,0,0,0,1.4-1.4v-2.8A1.4,1.4,0,0,0,687.208,1231Z" transform="translate(-253.638 -214.946)" fill="#cbd483"></path><path d="M687.208,1301h-2.8a1.4,1.4,0,0,0-1.4,1.4v2.8a1.4,1.4,0,0,0,1.4,1.4h2.8a1.4,1.4,0,0,0,1.4-1.4v-2.8A1.4,1.4,0,0,0,687.208,1301Z" transform="translate(-253.638 -275.13)" fill="#cbd483"></path></g></g></svg>