<svg xmlns="http://www.w3.org/2000/svg" width="72.922" height="37.685" viewBox="0 0 72.922 37.685"><g transform="translate(10596.059 -8882)"><path d="M159.07,199.631s17.682,11.335,18.248,12.128,1.375,1.926.014,2.777-1.785,1.317-1.785,2.125c0,.77-1.12,6.788-1.224,7.353a.3.3,0,0,1-.029.085c-.232.476-2.478,4.775-6.015,1.318-3.569-3.487-5.125-9.064-5.261-9.569a.309.309,0,0,0-.032-.077,2.413,2.413,0,0,0-2.443-1.235c-1.7.255-1.587,2.663-2.721,3.684s-3.74,2.267-4.194,2.153c-.4-.1,2.256,10.348,2.877,12.766a.4.4,0,0,1-.389.5H151.8a.4.4,0,0,1-.392-.318l-2.187-10.509a.789.789,0,0,0-1.528-.064l-3.16,10.605a.4.4,0,0,1-.383.286h-4.078a.4.4,0,0,1-.391-.486l2.5-11.418a.4.4,0,0,0-.4-.486c-2.571.1-14.154.334-19.219-2.872a.387.387,0,0,0-.5.063c-.887.97-4.132,4.558-4.791,5.876-.67,1.339-1.339,7.564-1.5,9.095a.393.393,0,0,1-.383.353l-3.958.14a.4.4,0,0,1-.4-.5c.634-2.428,3.3-12.748,3.52-15.891a41.487,41.487,0,0,1,1.105-7.821c.51-1.871.454-1.673.454-1.673s-2.409,5.667-3,6.773-2.21,4.676-3.06,5.44a1.927,1.927,0,0,1-2.721-.51,3.644,3.644,0,0,1,.68-3.23,29.9,29.9,0,0,0,4.506-6.971c.68-1.87,2.3-4.76,3.06-6.715s2.126-4.591,3.911-4.591c1.655,0,33,.341,37.56.391a1.8,1.8,0,0,1,1.009.323Z" transform="translate(-10702.222 8684.786)" fill="none" stroke="#315372" stroke-miterlimit="10" stroke-width="2"/><path d="M121,229.153a10.217,10.217,0,0,0,2.55,2.607c1.5,1.126,2.46,5.9,2.744,7.515a.644.644,0,0,0,.636.532h2.623a.731.731,0,0,0,.7-.931l-2.059-7.23s3.8-1.246,4.76-4.647" transform="translate(-10705.068 8678.839)" fill="none" stroke="#315372" stroke-miterlimit="10" stroke-width="2"/><path d="M179.576,205.714s-4.676,4.336-4.506,10.2l1.105.425s1.361-6.885,4.845-9.86Z" transform="translate(-10716.238 8683.236)" fill="#315372"/><g transform="translate(33 -87.05)"><path d="M0,0H4.717V10.079L0,11.006Z" transform="translate(-10607 8976.358)" fill="#a7b72d"/><path d="M0,0H4.717V9.434l-.144-.476L0,7.717Z" transform="translate(-10599.925 8978.717)" fill="#a7b72d"/><path d="M0,0H4.717l.108,11.881L0,13.365Z" transform="translate(-10592.849 8974)" fill="#a7b72d"/><rect width="3" height="4" transform="translate(-10599 8984.05)" fill="#a7b72d"/><path d="M-10606.92,8990.5l7.129-1.413.812,2.606,11.149-2.882" transform="translate(-0.016 -3.166)" fill="none" stroke="#315372" stroke-width="1"/></g></g></svg>