<svg xmlns="http://www.w3.org/2000/svg" width="176.109" height="176.568" viewBox="0 0 176.109 176.568"><g transform="translate(-1342 -1571)"><g transform="translate(1251 1555)"><path d="M64.858,0A64.858,64.858,0,1,1,0,64.858,64.858,64.858,0,0,1,64.858,0Z" transform="translate(114.635 39.635)" fill="#1e3346"></path><path d="M63.485,129.715a65.593,65.593,0,0,1-13.1-1.318,64.7,64.7,0,0,1-23.234-9.759A65.064,65.064,0,0,1,3.613,90.1,64.516,64.516,0,0,1,0,78.747l1.612-.362c6.314,28.649,32.308,49.443,61.808,49.443,34.887,0,63.27-28.229,63.27-62.927S98.307,1.973,63.42,1.973A62.942,62.942,0,0,0,25.99,14.2l-1.116-1.508c.751-.555,1.519-1.1,2.281-1.611A64.906,64.906,0,1,1,76.58,128.4,65.583,65.583,0,0,1,63.485,129.715Z" transform="translate(202.252 192.568) rotate(-150)" fill="#a7b72d"></path><path d="M3.3,1.649A1.649,1.649,0,1,0,1.649,3.3,1.65,1.65,0,0,0,3.3,1.649Z" transform="translate(185.533 168.77) rotate(-60)" fill="#a7b72d"></path><path d="M3.3,1.649A1.649,1.649,0,1,0,1.649,3.3,1.65,1.65,0,0,0,3.3,1.649Z" transform="translate(238.484 124.915) rotate(-60)" fill="#a7b72d"></path></g><g transform="translate(1381.863 1631)"><path d="M68.784,40.529l-.062-.074a21.442,21.442,0,0,0-11.883-7.084,14.787,14.787,0,0,0,5.337-7.086h3.742a3.806,3.806,0,0,0,3.8-3.8V21.357a21.357,21.357,0,1,0-42.713,0v1.127a3.806,3.806,0,0,0,3.8,3.8h3.606a14.787,14.787,0,0,0,5.457,7.17,21.421,21.421,0,0,0-11.513,7l-.063.075a20.762,20.762,0,0,0-5.159,13.683v1.643H73.943V54.213a20.763,20.763,0,0,0-5.159-13.683Zm-20.489-7.7a11.446,11.446,0,0,1-10.331-6.541h8.209V23h-9.2a11.432,11.432,0,1,1,11.318,9.826ZM66.433,22.483a.517.517,0,0,1-.516.516H62.924a14.683,14.683,0,0,0-.009-3.286h3.442c.049.541.075,1.089.075,1.643ZM48.363,3.286A18.1,18.1,0,0,1,65.75,16.428h-3.6a14.717,14.717,0,0,0-27.709,0H30.975A18.1,18.1,0,0,1,48.363,3.286ZM30.808,23a.517.517,0,0,1-.516-.516V21.357c0-.554.027-1.1.075-1.643h3.307A14.684,14.684,0,0,0,33.665,23ZM26.5,52.57a17.732,17.732,0,0,1,4.308-9.92l.063-.075a18.468,18.468,0,0,1,14.193-6.433h6.957a18.468,18.468,0,0,1,14.194,6.434l.063.074a17.734,17.734,0,0,1,4.308,9.92Z" fill="#a7b72d"></path></g></g></svg>