<svg xmlns="http://www.w3.org/2000/svg" width="51.006" height="59.61" viewBox="0 0 51.006 59.61"><g transform="translate(-1370 -987)"><g transform="translate(1371 988)"><rect width="15.61" height="4.956" transform="translate(16.189 7.186)" fill="none" stroke="#315372" stroke-miterlimit="10" stroke-width="2"/><path d="M207,645.214" transform="translate(-175.284 -640.424)" fill="none" stroke="#315372" stroke-miterlimit="10" stroke-width="2"/><path d="M181.313,650.39h-4.956V688.88a1.735,1.735,0,0,0,1.734,1.734h29.445a1.528,1.528,0,0,0,1.528-1.528V650.143h-6.112" transform="translate(-168.263 -641.553)" fill="none" stroke="#315372" stroke-miterlimit="10" stroke-width="2"/><rect width="3.469" height="8.507" transform="translate(14.95 49.061)" fill="none" stroke="#315372" stroke-miterlimit="10" stroke-width="2"/><rect width="3.469" height="8.507" transform="translate(28.991 49.102)" fill="none" stroke="#315372" stroke-miterlimit="10" stroke-width="2"/><path d="M174.663,652.179l-5.069,2.571a1.15,1.15,0,0,0-.631,1.026v33.691a1.151,1.151,0,0,0,1.472,1.1l3.4-.984a1.151,1.151,0,0,0,.83-1.105Z" transform="translate(-166.569 -642.02)" fill="none" stroke="#315372" stroke-miterlimit="10" stroke-width="2"/><path d="M219.2,651.846l3.906,1.981a2.589,2.589,0,0,1,1.418,2.31v32.41a1.448,1.448,0,0,1-1.852,1.391l-3.847-1.115V652.075A.258.258,0,0,1,219.2,651.846Z" transform="translate(-177.992 -641.937)" fill="none" stroke="#315372" stroke-miterlimit="10" stroke-width="2"/><rect width="6.318" height="8.507" transform="translate(9.911 0.33)" fill="none" stroke="#315372" stroke-miterlimit="10" stroke-width="2"/><rect width="6.318" height="8.507" transform="translate(31.799 0)" fill="none" stroke="#315372" stroke-miterlimit="10" stroke-width="2"/><rect width="49.006" height="4.956" rx="1.839" transform="translate(0 33.175)" fill="#a7b72d" stroke="#315372" stroke-miterlimit="10" stroke-width="2"/><path d="M185.951,646.927v7.064a.359.359,0,0,1-.578.285c-1.442-1.132-4.752-4.4.008-7.643A.363.363,0,0,1,185.951,646.927Z" transform="translate(-169.763 -640.734)" fill="#a7b72d" stroke="#315372" stroke-miterlimit="10" stroke-width="2"/><path d="M207.155,646.641V653.7a.359.359,0,0,0,.578.285c1.442-1.132,4.752-4.4-.008-7.642A.362.362,0,0,0,207.155,646.641Z" transform="translate(-175.319 -640.668)" fill="#a7b72d" stroke="#315372" stroke-miterlimit="10" stroke-width="2"/></g></g></svg>