<svg xmlns="http://www.w3.org/2000/svg" width="52.162" height="53.197" viewBox="0 0 52.162 53.197"><g transform="translate(-311.5 -896.751)"><circle cx="0.856" cy="0.856" r="0.856" transform="translate(319.218 927.622) rotate(-45)" fill="#a7b72d" stroke="#315372" stroke-width="1"/><path d="M-684.444,420.777a.856.856,0,0,1,.856.856.856.856,0,0,1-.856.856.856.856,0,0,1-.856-.856A.856.856,0,0,1-684.444,420.777Z" transform="translate(1005.853 498.722)" fill="#a7b72d" stroke="#315372" stroke-width="1"/><path d="M-709.594,388.526a.856.856,0,0,1,.856.856.856.856,0,0,1-.856.856.856.856,0,0,1-.856-.856A.856.856,0,0,1-709.594,388.526Z" transform="translate(1029.183 527.697)" fill="#a7b72d" stroke="#315372" stroke-width="1"/><path d="M-577.854,201.771h-10.173a3.184,3.184,0,0,0-3.342,2.988,3.064,3.064,0,0,0,2.422,2.872V248.6c0,2.962,2.694,5.371,6.007,5.371s6.007-2.41,6.007-5.371v-1.82a.814.814,0,0,0-.856-.765.814.814,0,0,0-.856.765v1.82a4.092,4.092,0,0,1-4.295,3.841,4.092,4.092,0,0,1-4.3-3.841V227.568h8.59v15.644a.814.814,0,0,0,.856.765.814.814,0,0,0,.856-.765V207.632a3.064,3.064,0,0,0,2.422-2.872A3.184,3.184,0,0,0-577.854,201.771Zm-.792,24.267h-8.59v-18.29h8.59Zm.792-19.82h-10.173a1.553,1.553,0,0,1-1.63-1.458,1.553,1.553,0,0,1,1.63-1.458h10.173a1.553,1.553,0,0,1,1.63,1.458A1.553,1.553,0,0,1-577.854,206.217Z" transform="translate(920.633 695.48)" fill="#315372" stroke="#315372" stroke-width="1"/><path d="M-755.99,201.771h-10.174a3.184,3.184,0,0,0-3.342,2.988,3.064,3.064,0,0,0,2.422,2.872v2.116a.814.814,0,0,0,.856.765.814.814,0,0,0,.856-.765v-2h8.59v8.164h-8.59V213.27a.814.814,0,0,0-.856-.765.814.814,0,0,0-.856.765V248.6c0,2.962,2.695,5.371,6.007,5.371s6.007-2.41,6.007-5.371V207.632a3.064,3.064,0,0,0,2.422-2.872,3.184,3.184,0,0,0-3.342-2.988Zm-.792,46.826a4.092,4.092,0,0,1-4.295,3.841,4.092,4.092,0,0,1-4.295-3.841V217.443h8.59Zm.792-42.38h-10.174a1.553,1.553,0,0,1-1.63-1.458,1.553,1.553,0,0,1,1.63-1.458h10.174a1.553,1.553,0,0,1,1.63,1.458A1.553,1.553,0,0,1-755.99,206.217Z" transform="translate(1081.506 695.48)" fill="#315372" stroke="#315372" stroke-width="1"/><circle cx="0.856" cy="0.856" r="0.856" transform="translate(353.523 927.622) rotate(-45)" fill="#a7b72d" stroke="#315372" stroke-width="1"/><path d="M-330.462,420.777a.856.856,0,0,1,.856.856.856.856,0,0,1-.856.856.856.856,0,0,1-.856-.856A.856.856,0,0,1-330.462,420.777Z" transform="translate(687.223 498.722)" fill="#a7b72d" stroke="#315372" stroke-width="1"/><path d="M-355.612,388.526a.856.856,0,0,1,.856.856.856.856,0,0,1-.856.856.856.856,0,0,1-.856-.856A.856.856,0,0,1-355.612,388.526Z" transform="translate(709.505 527.697)" fill="#a7b72d" stroke="#315372" stroke-width="1"/><path d="M-402.008,201.771h-10.173a3.184,3.184,0,0,0-3.342,2.988,3.064,3.064,0,0,0,2.422,2.872v2.116a.814.814,0,0,0,.856.765.814.814,0,0,0,.856-.765v-2h8.59v8.164h-8.59V213.27a.814.814,0,0,0-.856-.765.814.814,0,0,0-.856.765V248.6c0,2.962,2.695,5.371,6.007,5.371s6.007-2.41,6.007-5.371V207.632a3.064,3.064,0,0,0,2.422-2.872,3.184,3.184,0,0,0-3.342-2.988ZM-402.8,248.6a4.092,4.092,0,0,1-4.3,3.841,4.092,4.092,0,0,1-4.295-3.841V217.443h8.59Zm.792-42.38h-10.173a1.553,1.553,0,0,1-1.63-1.458,1.553,1.553,0,0,1,1.63-1.458h10.173a1.553,1.553,0,0,1,1.63,1.458A1.553,1.553,0,0,1-402.008,206.217Z" transform="translate(761.828 695.48)" fill="#315372" stroke="#315372" stroke-width="1"/></g></svg>